<svg width="19" height="18" viewBox="0 0 19 18" fill="none" xmlns="http://www.w3.org/2000/svg">
<path d="M17.3335 0H1.3335C1.06828 0 0.813926 0.105357 0.626389 0.292893C0.438853 0.48043 0.333496 0.734784 0.333496 1V17C0.333496 17.2652 0.438853 17.5196 0.626389 17.7071C0.813926 17.8946 1.06828 18 1.3335 18H9.9485V11.04H7.6105V8.315H9.9485V6.315C9.9485 3.99 11.3685 2.723 13.4485 2.723C14.1475 2.721 14.8475 2.757 15.5435 2.83V5.25H14.1085C12.9805 5.25 12.7605 5.788 12.7605 6.575V8.31H15.4575L15.1075 11.035H12.7595V18H17.3335C17.5987 18 17.8531 17.8946 18.0406 17.7071C18.2281 17.5196 18.3335 17.2652 18.3335 17V1C18.3335 0.734784 18.2281 0.48043 18.0406 0.292893C17.8531 0.105357 17.5987 0 17.3335 0Z" fill="black"/>
</svg>
