<svg width="21" height="16" viewBox="0 0 21 16" fill="none" xmlns="http://www.w3.org/2000/svg">
<path d="M18.4738 3.99704C18.4868 4.17204 18.4868 4.34604 18.4868 4.52004C18.4868 9.84504 14.4338 15.981 7.02682 15.981C4.74482 15.981 2.62482 15.32 0.84082 14.172C1.16482 14.209 1.47682 14.222 1.81382 14.222C3.62681 14.2264 5.38847 13.6202 6.81482 12.501C5.97424 12.4858 5.1594 12.2085 4.48406 11.7078C3.80872 11.2071 3.3066 10.5079 3.04782 9.70804C3.29682 9.74504 3.54682 9.77004 3.80882 9.77004C4.16982 9.77004 4.53282 9.72004 4.86982 9.63304C3.95758 9.44886 3.13729 8.95439 2.54844 8.23373C1.95958 7.51306 1.63851 6.61069 1.63982 5.68004V5.63004C2.17682 5.92904 2.79982 6.11604 3.45982 6.14104C2.90691 5.77363 2.45354 5.27507 2.14016 4.68983C1.82678 4.1046 1.66313 3.4509 1.66382 2.78704C1.66382 2.03904 1.86282 1.35304 2.21182 0.755044C3.22396 2.00006 4.48632 3.0186 5.91716 3.7447C7.34799 4.4708 8.91538 4.88826 10.5178 4.97004C10.4558 4.67004 10.4178 4.35904 10.4178 4.04704C10.4176 3.518 10.5216 2.9941 10.7239 2.50528C10.9262 2.01647 11.2229 1.57232 11.597 1.19823C11.9711 0.824144 12.4152 0.527454 12.9041 0.325121C13.3929 0.122789 13.9168 0.0187806 14.4458 0.0190435C15.6058 0.0190435 16.6528 0.505043 17.3888 1.29104C18.2906 1.11666 19.1554 0.787465 19.9448 0.318043C19.6442 1.24886 19.0146 2.03815 18.1738 2.53804C18.9736 2.44682 19.7553 2.2365 20.4928 1.91404C19.942 2.71714 19.2593 3.42139 18.4738 3.99704Z" fill="black"/>
</svg>
